<?xml version="1.0" encoding="UTF-8" standalone="no"?>
<!-- Created with Inkscape (http://www.inkscape.org/) -->

<svg
   xmlns:dc="http://purl.org/dc/elements/1.1/"
   xmlns:cc="http://creativecommons.org/ns#"
   xmlns:rdf="http://www.w3.org/1999/02/22-rdf-syntax-ns#"
   xmlns:svg="http://www.w3.org/2000/svg"
   xmlns="http://www.w3.org/2000/svg"
   xmlns:sodipodi="http://sodipodi.sourceforge.net/DTD/sodipodi-0.dtd"
   xmlns:inkscape="http://www.inkscape.org/namespaces/inkscape"
   width="210mm"
   height="297mm"
   viewBox="0 0 744.09448819 1052.3622047"
   id="svg3643"
   version="1.1"
   inkscape:version="0.91 r13725"
   sodipodi:docname="rabitsvg.svg">
  <defs
     id="defs3645" />
  <sodipodi:namedview
     id="base"
     pagecolor="#ffffff"
     bordercolor="#666666"
     borderopacity="1.0"
     inkscape:pageopacity="0.0"
     inkscape:pageshadow="2"
     inkscape:zoom="0.7"
     inkscape:cx="531.87822"
     inkscape:cy="729.95285"
     inkscape:document-units="px"
     inkscape:current-layer="layer1"
     showgrid="false"
     inkscape:window-width="1280"
     inkscape:window-height="751"
     inkscape:window-x="17"
     inkscape:window-y="0"
     inkscape:window-maximized="0" />
  <metadata
     id="metadata3648">
    <rdf:RDF>
      <cc:Work
         rdf:about="">
        <dc:format>image/svg+xml</dc:format>
        <dc:type
           rdf:resource="http://purl.org/dc/dcmitype/StillImage" />
        <dc:title></dc:title>
      </cc:Work>
    </rdf:RDF>
  </metadata>
  <g
     inkscape:label="Laag 1"
     inkscape:groupmode="layer"
     id="layer1">
    <path
       style="fill:#000000"
       d="m 538.96029,914.59809 c 0,-0.3539 0.74311,-2.2744 1.65133,-4.2677 2.20639,-4.8425 0.93774,-5.7101 -4.35081,-2.9753 -2.41125,1.2469 -6.01457,2.887 -8.00738,3.6447 -3.55957,1.3533 -3.60622,1.2867 -2.65344,-3.7921 l 0.96984,-5.1697 -7.38219,0.9793 c -7.24571,0.9611 -7.35177,0.9224 -5.73702,-2.0948 1.37712,-2.5731 1.15283,-3.5666 -1.37663,-6.0972 -3.00675,-3.0082 -3.50442,-3.0273 -99.93776,-3.8437 l -96.91595,-0.8206 -13.6218,-3.6564 c -21.47249,-5.7639 -34.69588,-13.3154 -51.51566,-29.4194 -5.35436,-5.1264 -12.94547,-13.9554 -16.86914,-19.62 -3.92368,-5.6645 -7.53357,-10.2988 -8.02197,-10.2983 -0.4884,4e-4 -5.04317,2.5703 -10.12172,5.7107 -13.17687,8.1484 -24.51788,11.3353 -40.33746,11.3353 -24.55524,0 -42.89016,-7.7655 -60.84558,-25.7705 -12.75145,-12.7866 -19.708356,-23.0353 -23.598736,-34.76489 -3.1112,-9.38039 -6.61523,-28.72967 -5.41932,-29.92559 0.42871,-0.4287 2.49474,0.56976 4.59117,2.21881 4.77545,3.75639 14.652686,6.56996 16.517536,4.7051 0.85401,-0.854 -0.51143,-4.94103 -3.71267,-11.11285 -11.363856,-21.90883 -12.078686,-38.57881 -2.484586,-57.94052 3.167756,-6.3928 6.988816,-12.73574 8.491246,-14.09541 2.64487,-2.39357 2.78193,-2.27263 4.31245,3.80563 2.15615,8.56283 6.91774,19.40253 8.52302,19.40253 0.72398,0 2.33911,-5.5935 3.58918,-12.43 2.14117,-11.70987 2.64577,-12.78604 8.70965,-18.5753 3.54024,-3.37993 7.20807,-5.88823 8.15072,-5.57401 0.94266,0.31421 3.37086,3.39924 5.39601,6.85559 l 3.68207,6.28429 15.52594,-0.49857 c 13.90124,-0.44642 16.75615,-0.0911 27.28214,3.39655 6.46591,2.14233 12.0715,3.57984 12.45686,3.19449 0.38536,-0.38536 4.42382,-10.5438 8.97434,-22.57428 9.14033,-24.1648 12.77374,-31.87725 23.20199,-49.24976 22.54246,-37.55356 45.88016,-61.46162 97.74261,-100.13134 25.33084,-18.8872 61.88355,-55.06738 67.20278,-66.51786 7.27797,-15.66702 9.50808,-27.18959 9.50808,-49.12649 0,-11.09857 -0.57608,-21.69446 -1.2802,-23.5464 -0.70411,-1.85196 -5.4824,-8.87451 -10.61841,-15.60569 -5.13602,-6.73116 -11.24571,-15.99221 -13.57709,-20.58007 -5.27596,-10.38241 -8.61801,-28.77101 -8.61801,-47.41793 l 0,-13.9646 -7.458,-2.24396 c -10.62957,-3.19822 -57.10414,-5.24394 -80.11298,-3.52643 -21.13032,1.57729 -22.91676,1.97179 -72.9536,16.1098 -20.70483,5.85019 -42.9465,11.63745 -49.42592,12.86057 -19.85705,3.74843 -55.10925,5.86949 -68.39621,4.11527 -6.379916,-0.84231 -11.993246,-1.92488 -12.474056,-2.40568 -0.48081,-0.48081 0.0324,-2.6149 1.14042,-4.74242 2.6513,-5.09071 49.526176,-52.01373 59.547756,-59.60893 10.0448,-7.61279 29.65373,-18.03212 42.09948,-22.36984 24.46036,-8.52516 25.24899,-8.62398 67.99481,-8.51968 l 39.77601,0.097 42.55009,8.7815 c 43.54253,8.98634 47.6562,9.64335 47.6562,7.61131 0,-0.64362 -7.10465,-8.6525 -15.78812,-17.7975 -27.73257,-29.20657 -53.85759,-49.10073 -88.62389,-67.48689 -9.37577,-4.95838 -27.90443,-14.72966 -41.17479,-21.71395 -41.14005,-21.652314 -50.10906,-27.853694 -72.6211,-50.211894 -17.99386,-17.87089 -23.61163,-25.02439 -21.3938,-27.24222 0.40386,-0.40386 7.9735,-2.04808 16.82142,-3.65382 23.56676,-4.27696 61.70812,-4.23456 81.76536,0.0909 36.37401,7.84424 64.9833,23.13278 97.15302,51.9177 25.88554,23.161934 45.33496,46.326454 65.37843,77.866584 5.74547,9.04102 12.75585,19.08571 15.57859,22.32155 l 5.13229,5.88332 11.91457,-5.68042 c 19.65886,-9.37262 26.66346,-10.69109 56.66259,-10.66558 26.11234,0.0222 26.35663,0.0514 38.16201,4.56449 21.76057,8.31884 28.92032,13.74685 55.73943,42.25769 14.39461,15.30259 19.43193,21.7441 23.60135,30.18032 5.05014,10.21829 5.30256,11.40418 5.3387,25.08156 0.0209,7.89587 -0.42672,16.00671 -0.99465,18.02408 -0.56793,2.01737 -4.25844,8.03788 -8.20112,13.37893 -3.94268,5.34105 -7.54943,11.36156 -8.01498,13.37893 -1.3031,5.64668 -12.54513,25.83018 -19.65627,35.29007 -9.98808,13.28709 -23.4531,23.14486 -42.40358,31.04374 -4.82179,2.00981 -9.40614,4.31869 -10.18746,5.13086 -2.69297,2.79932 8.06727,-0.23364 24.6757,-6.95527 l 16.28721,-6.59164 3.03421,3.52748 c 1.66883,1.94012 7.99174,11.6563 14.05093,21.59151 17.42869,28.5777 33.786,69.08762 41.08679,101.75404 2.52696,11.30653 3.02272,18.21886 3.05654,42.61715 0.0429,30.90407 -1.21799,39.75109 -7.76537,54.48681 l -3.06475,6.89766 -5.02652,-4.7668 -5.02651,-4.76682 1.03314,4.26172 c 8.67944,35.80322 10.62799,52.51637 7.96409,68.30977 -4.61707,27.37313 -22.72724,41.21926 -53.3706,40.80451 -7.03183,-0.0952 -14.38328,-0.78849 -16.33657,-1.54071 -3.24821,-1.2509 -2.85401,-1.5242 4.61686,-3.20096 4.49255,-1.00831 8.16828,-2.28764 8.16828,-2.84297 0,-0.55535 -3.81523,-1.76031 -8.47828,-2.67771 -10.32794,-2.03189 -12.47483,-4.37569 -4.03556,-4.40568 10.80443,-0.0384 10.45018,-1.76041 1.50441,-8.36911 -4.24503,-3.13602 -4.17974,-4.39428 -0.57531,-4.39428 5.85617,0 10.5394,-9.2472 13.52533,-26.70632 l 2.25937,-13.21087 -6.49057,-12.00427 c -3.56983,-6.60234 -6.6778,-12.00426 -6.90661,-12.00426 -0.22881,0 1.14226,5.27387 3.04682,11.71972 2.77758,9.40059 3.37735,14.22091 3.0309,24.35954 l -0.43193,12.63982 -7.08576,5.82761 c -9.29703,7.64622 -33.75452,32.11732 -49.51145,49.53901 -6.90422,7.63368 -14.37258,14.82028 -16.59635,15.97025 -4.59716,2.37728 -4.12926,3.08346 -7.071,-10.67194 -8.6151,-40.28379 -25.728,-69.15307 -54.68973,-92.26094 -12.18006,-9.71818 -22.80072,-15.29886 -34.90806,-18.34257 -11.52718,-2.89788 -32.56908,-5.06623 -32.56908,-3.35622 0,0.58869 7.38737,2.49135 16.41636,4.22811 43.06718,8.28416 69.93519,28.39376 89.26881,66.81402 11.93133,23.71022 17.48311,48.81842 16.05483,72.60876 -1.92903,32.13113 -13.48432,54.16936 -38.58297,73.58546 -5.8019,4.4882 -10.29925,8.4101 -9.99411,8.7153 0.30514,0.3051 10.33767,-0.2336 22.29452,-1.1972 12.29001,-0.9904 34.39818,-1.4898 50.86142,-1.1487 26.18632,0.5424 29.69448,0.905 34.804,3.5976 14.24352,7.5057 20.71215,19.6246 21.06952,39.4735 0.27122,15.0626 -0.87328,17.5931 -11.72308,25.9197 -5.12444,3.9328 -11.4773,6.1321 -11.4773,3.9735 z M 500.69825,275.93435 c 3.91217,-2.09373 3.4433,-4.30832 -2.34351,-11.06891 -10.60123,-12.38515 -24.86191,-16.81362 -35.76406,-11.10609 -4.5243,2.36859 -4.58231,2.518 -2.52326,6.49978 2.77753,5.37114 13.03225,14.05492 18.4621,15.63386 6.07792,1.76737 18.89895,1.79129 22.16873,0.0413 z m 87.12188,-3.52554 c 7.11649,-3.377 17.90702,-15.33763 17.90702,-19.84882 0,-6.85689 -8.68337,-7.21124 -19.09084,-0.77906 -5.85064,3.61589 -14.36383,12.84917 -15.68496,17.01167 -2.30624,7.26637 5.60342,8.96197 16.86878,3.61621 z m 2.28074,609.47448 c 0,-0.4821 0.86758,-2.6028 1.92797,-4.7126 2.23447,-4.4459 4.09009,-13.0698 2.81223,-13.0698 -0.47907,0 -3.6451,2.5571 -7.0356,5.6823 -8.6488,7.9722 -10.58421,7.6102 -9.47306,-1.7718 l 0.88283,-7.4541 -5.11668,3.9027 c -6.59227,5.0281 -8.80242,4.9187 -11.06672,-0.5478 -4.20139,-10.143 -15.21805,-19.0642 -29.47168,-23.8659 -7.42183,-2.5003 -12.21964,-2.9362 -32.31323,-2.9362 -12.97848,0 -29.58013,0.7056 -36.89252,1.568 -7.31241,0.8624 -13.93832,1.3418 -14.72425,1.0654 -0.78593,-0.2764 3.92191,-6.4939 10.46189,-13.8167 17.17986,-19.2362 22.38227,-30.16795 27.12826,-57.00415 1.31267,-7.42249 3.27396,-15.24277 4.35844,-17.37838 2.20758,-4.34731 27.72866,-35.09579 34.32064,-41.35044 l 4.25453,-4.03679 0.77772,4.03679 c 0.42774,2.22026 1.16535,11.7079 1.63912,21.08367 0.67125,13.28389 0.35924,18.92833 -1.41348,25.57029 -5.07988,19.03307 -15.86301,35.43622 -31.9167,48.55131 -5.45933,4.4599 -9.67516,8.3599 -9.36853,8.6666 0.30664,0.3066 10.2947,-0.5363 22.19568,-1.8731 24.17808,-2.716 62.48115,-2.2359 73.77142,0.9245 9.60386,2.6883 20.41114,14.0761 23.52551,24.7891 4.40749,15.1613 0.30187,33.5899 -8.93249,40.0944 -4.28059,3.0153 -10.3313,5.2892 -10.3313,3.8827 z m 48.25664,-189.33946 c 5.83632,-2.91723 10.83456,-6.07527 11.10718,-7.01788 0.3175,-1.09776 -2.09272,-2.05718 -6.70493,-2.66901 -3.96034,-0.52535 -7.2006,-1.39369 -7.2006,-1.92965 0,-0.53593 2.27148,-2.05764 5.04773,-3.38154 5.87478,-2.80149 5.37413,-4.73708 -1.56182,-6.03828 -6.82842,-1.28101 -7.31202,-2.99573 -1.52666,-5.41302 8.32612,-3.47888 8.55513,-5.64359 2.46573,-23.30782 -2.97879,-8.64093 -7.06455,-17.66999 -9.07947,-20.06458 l -3.6635,-4.35383 4.88993,-11.28389 c 5.2535,-12.12285 9.08717,-32.36156 9.10196,-48.05113 0.006,-6.57361 0.51446,-8.87857 1.95778,-8.87857 2.29882,0 20.53105,21.50502 27.62757,32.58691 9.51804,14.8633 18.85216,36.46449 21.06942,48.75917 2.58819,14.35154 1.55079,30.51337 -2.50061,38.95704 -7.40893,15.44129 -31.189,27.38337 -54.53835,27.38855 l -7.10286,10e-4 10.6115,-5.30404 z"
       id="path3680"
       inkscape:connector-curvature="0"
       sodipodi:nodetypes="ssscsccccscsssccssscssssssssscscsssssssssssscsssssssssscsssssssssssscssssssssssssscssssscccssssssssssscsssscssssssssssscsscssscssssccsssssssssscsssssssssscsssscssscscsssssssscscsssscccc" />
  </g>
</svg>
